<?xml version="1.0" encoding="UTF-8"?>
<svg width="19px" height="20px" viewBox="0 0 19 20" version="1.1" xmlns="http://www.w3.org/2000/svg" xmlns:xlink="http://www.w3.org/1999/xlink">
    <title>Icons/Cog</title>
    <g id="Iconography" stroke="none" stroke-width="1" fill="none" fill-rule="evenodd">
        <g transform="translate(-736.000000, -100.000000)" id="Icons/Cog">
            <g transform="translate(723.000000, 92.000000)">
                <rect id="ViewBox" x="0" y="0" width="45" height="36"></rect>
                <path d="M30.3983948,20.5070006 L28.5843948,19.2170006 C28.8890553,18.0967877 28.8873285,16.9153181 28.5793948,15.7960006 L30.3993948,14.5220006 L28.9463948,12.0080006 L26.9223948,12.9340006 C26.1043122,12.1100242 25.0799783,11.5208422 23.9563948,11.2280006 L23.7633948,9.01500057 L20.8573948,9.01500057 L20.6643948,11.2280006 C19.5410434,11.5212453 18.5170514,12.1107745 17.6993948,12.9350006 L15.6743948,12.0090006 L14.2223948,14.5230006 L16.0423948,15.7970006 C15.734316,16.9159139 15.7322439,18.0970132 16.0363948,19.2170006 L14.2223948,20.5070006 L15.6743948,23.0090006 L17.6993948,22.0820006 C18.5171694,22.9058622 19.5411506,23.49504 20.6643948,23.7880006 L20.8573948,26.0010006 L23.7633948,26.0010006 L23.9563948,23.7880006 C25.0796203,23.4949943 26.1035901,22.9058231 26.9213948,22.0820006 L28.9463948,23.0090006 L30.3993948,20.5080006 L30.3983948,20.5070006 Z M24.3153948,8.00000029 C24.5827989,7.99971751 24.8030944,8.20987937 24.8153948,8.47700057 L24.9933948,10.5120006 C25.7326189,10.7937082 26.4222573,11.1913558 27.0363948,11.6900006 L28.8863948,10.8270006 C29.1237374,10.7048825 29.4151496,10.7907215 29.5483948,11.0220006 L31.5533948,14.4920006 C31.6872134,14.7230451 31.6158902,15.0184641 31.3913948,15.1630006 L29.7173948,16.3350006 C29.8453948,17.1330006 29.8413948,17.9280006 29.7183948,18.6940006 L31.3913948,19.8640006 C31.6164729,20.0085926 31.6878637,20.3047321 31.5533948,20.5360006 L29.5483948,23.9930006 C29.4151496,24.2242797 29.1237374,24.3101186 28.8863948,24.1880006 L27.0363948,23.3250006 C26.4343948,23.8150006 25.7483948,24.2150006 24.9933948,24.5040006 L24.8153948,26.5390006 C24.8025773,26.8057279 24.5824298,27.0153084 24.3153948,27.0150009 L20.3053948,27.0150009 C20.0383598,27.0153084 19.8182123,26.8057279 19.8053948,26.5390006 L19.6273948,24.5040006 C18.888128,24.2219398 18.198493,23.8239566 17.5843948,23.3250006 L15.7343948,24.1880006 C15.4970652,24.3109339 15.2050202,24.2254788 15.0713948,23.9940006 L13.0673948,20.5350006 C12.9335763,20.3039561 13.0048995,20.0085371 13.2293948,19.8640006 L14.9023948,18.6930006 C14.7771108,17.9116575 14.7771108,17.1153436 14.9023948,16.3340006 L13.2303948,15.1630006 C13.0064807,15.0185206 12.9352247,14.7238203 13.0683948,14.4930006 L15.0703948,11.0220006 C15.2036835,10.7901544 15.4958086,10.7042353 15.7333948,10.8270006 L17.5833948,11.6900006 C18.1975323,11.1913558 18.8871707,10.7937082 19.6263948,10.5120006 L19.8043948,8.47700057 C19.8166953,8.20987937 20.0369907,7.99971751 20.3043948,8.00000029 L24.3143948,8.00000029 L24.3153948,8.00000029 Z M22.3103948,14.0150006 C24.2433914,14.0150006 25.8103948,15.5820039 25.8103948,17.5150006 C25.8103948,19.4479972 24.2433914,21.0150006 22.3103948,21.0150006 C20.3773982,21.0150006 18.8103948,19.4479972 18.8103948,17.5150006 C18.8103948,15.5820039 20.3773982,14.0150006 22.3103948,14.0150006 Z M22.3103948,15.0150006 C20.9296829,15.0150006 19.8103948,16.1342887 19.8103948,17.5150006 C19.8103948,18.8957124 20.9296829,20.0150006 22.3103948,20.0150006 C23.6911067,20.0150006 24.8103948,18.8957124 24.8103948,17.5150006 C24.8103948,16.1342887 23.6911067,15.0150006 22.3103948,15.0150006 L22.3103948,15.0150006 Z" id="Shape" fill="#000000" fill-rule="nonzero"></path>
            </g>
        </g>
    </g>
</svg>