<?xml version="1.0" encoding="UTF-8"?>
<svg width="15px" height="17px" viewBox="0 0 15 17" version="1.1" xmlns="http://www.w3.org/2000/svg" xmlns:xlink="http://www.w3.org/1999/xlink">
    <title>Icons/Download</title>
    <g id="Iconography" stroke="none" stroke-width="1" fill="none" fill-rule="evenodd">
        <g transform="translate(-51.000000, -102.000000)" id="Icons/Download">
            <g transform="translate(44.000000, 98.000000)">
                <rect id="Rectangle" stroke-opacity="0" stroke="#F37037" transform="translate(15.000000, 12.000000) scale(-1, 1) rotate(180.000000) translate(-15.000000, -12.000000) " x="0.5" y="0.5" width="29" height="23"></rect>
                <rect id="Rectangle" stroke-opacity="0" stroke="#F37037" transform="translate(15.000000, 12.000000) scale(-1, 1) rotate(180.000000) translate(-15.000000, -12.000000) " x="0.5" y="0.5" width="29" height="23"></rect>
                <rect id="Rectangle" fill="#F37037" transform="translate(14.500000, 20.000000) scale(-1, 1) rotate(180.000000) translate(-14.500000, -20.000000) " x="7" y="19" width="15" height="2" rx="1"></rect>
                <path d="M13.9429626,4.75039897 L13.989885,4.76066723 L14.1664815,4.82737076 L14.338,4.762 L18.7628607,9.04145622 C18.7845565,9.06315202 18.7990204,9.08934116 18.8062523,9.11702808 L18.8116763,9.15930735 C18.8116763,9.20196107 18.7954044,9.24461479 18.7628607,9.27715848 C18.7303171,9.30970217 18.6876633,9.32597402 18.6450096,9.32597402 C18.6023559,9.32597402 18.5597022,9.30970217 18.5271997,9.27719972 L14.3996181,5.14865514 L14.4,16.9926407 C14.4,17.0616763 14.3720178,17.1241763 14.3267767,17.1694174 C14.2815356,17.2146585 14.2190356,17.2426407 14.15,17.2426407 C14.0809644,17.2426407 14.0184644,17.2146585 13.9732233,17.1694174 C13.9279822,17.1241763 13.9,17.0616763 13.9,16.9926245 L13.899618,5.18272598 L9.80617485,9.27715848 C9.77717331,9.30616003 9.74015548,9.32230752 9.70222431,9.32540729 C9.67299186,9.3277962 9.64316238,9.32268061 9.61613406,9.30970857 C9.56843071,9.25696926 9.53615779,9.2011554 9.53140885,9.14293289 C9.5282872,9.10466114 9.54308939,9.06883942 9.57047259,9.04145622 L13.8131133,4.79881554 C13.8365138,4.77541504 13.8650894,4.76028182 13.8952313,4.75378703 C13.9266138,4.74702491 13.9595811,4.74922091 13.989885,4.76066723 Z" id="Combined-Shape" stroke="#F37037" transform="translate(14.166667, 10.996320) scale(-1, 1) rotate(180.000000) translate(-14.166667, -10.996320) "></path>
            </g>
        </g>
    </g>
</svg>