<?xml version="1.0" encoding="UTF-8"?>
<svg width="26px" height="25px" viewBox="0 0 26 25" version="1.1" xmlns="http://www.w3.org/2000/svg" xmlns:xlink="http://www.w3.org/1999/xlink">
    <title>Icons/Pencil</title>
    <g id="Iconography" stroke="none" stroke-width="1" fill="none" fill-rule="evenodd">
        <g transform="translate(-238.000000, -92.000000)" id="Icons/Pencil">
            <g transform="translate(228.000000, 86.000000)">
                <rect id="ViewBox" x="0" y="0" width="45" height="36"></rect>
                <path d="M35.55158,11.9461635 L31.985034,15.3757364 L26.2498077,9.86077136 L29.8163537,6.43119844 C30.1029582,6.155132 30.4919701,6 30.8976351,6 C31.3033,6 31.6923119,6.155132 31.9789164,6.43119844 L35.55158,9.86665399 C35.8386722,10.1422514 36,10.5163233 36,10.9064087 C36,11.2964941 35.8386722,11.6705661 35.55158,11.9461635 L35.55158,11.9461635 Z M10,25.485035 L25.3933473,10.6843395 L31.1285735,16.1993045 L15.7352263,31 L10.0015294,31 L10.0015294,25.485035 L10,25.485035 Z M30.8334005,7.53713276 L28.4781343,9.80047441 L32.0523273,13.2344593 L34.4045347,10.9711177 L30.8334005,7.53713276 Z M28.9002469,16.2654841 L25.3291127,12.8300285 L11.5309231,26.0968284 L11.5309231,29.532284 L15.1035867,29.532284 L28.9002469,16.2654841 Z" id="Shape" fill="#414042" fill-rule="nonzero"></path>
            </g>
        </g>
    </g>
</svg>