<?xml version="1.0" encoding="UTF-8"?>
<svg width="18px" height="20px" viewBox="0 0 18 20" version="1.1" xmlns="http://www.w3.org/2000/svg" xmlns:xlink="http://www.w3.org/1999/xlink">
    <title>Icons/Trash</title>
    <g id="Iconography" stroke="none" stroke-width="1" fill="none" fill-rule="evenodd">
        <g transform="translate(-335.000000, -94.000000)" id="Icons/Trash">
            <g transform="translate(321.000000, 86.000000)">
                <rect id="ViewBox" x="0" y="0" width="45" height="36"></rect>
                <path d="M20.7346939,9.24999999 L24.4081632,9.24999999 C24.7462968,9.24999999 25.0204081,9.52982202 25.0204081,9.87499999 L25.0204081,11.125 L20.122449,11.125 L20.122449,9.87499999 C20.122449,9.52982202 20.3965603,9.24999999 20.7346939,9.24999999 Z M26.2448979,11.125 L26.2448979,9.87499999 C26.2448979,8.83946609 25.4225638,8 24.4081632,8 L20.7346939,8 C19.7202933,8 18.8979592,8.83946609 18.8979592,9.87499999 L18.8979592,11.125 L15.8440816,11.125 C15.8400001,11.1249641 15.8359183,11.1249641 15.8318367,11.125 L14.6122449,11.125 C14.2741114,11.125 14,11.404822 14,11.75 C14,12.0951779 14.2741114,12.375 14.6122449,12.375 L15.2710204,12.375 L16.3155102,25.6999999 C16.4176505,26.9991759 17.4803885,28.0002673 18.7571428,28 L26.3857143,28 C27.6624686,28.0002673 28.7252066,26.9991759 28.8273469,25.6999999 L29.8718367,12.375 L30.5306122,12.375 C30.8687457,12.375 31.1428571,12.0951779 31.1428571,11.75 C31.1428571,11.404822 30.8687457,11.125 30.5306122,11.125 L29.3122449,11.125 C29.3081633,11.1249647 29.3040815,11.1249647 29.3,11.125 L26.2448979,11.125 Z M28.6424489,12.375 L27.6065306,25.5999999 C27.5554604,26.2495879 27.0240914,26.7499999 26.3857143,26.7499999 L18.7571428,26.7499999 C18.1187657,26.7499999 17.5873967,26.2495879 17.5363265,25.5999999 L16.5004082,12.375 L28.6424489,12.375 Z M19.4746939,13.625 C19.8121131,13.6050911 20.1015087,13.8680638 20.1212245,14.2125 L20.7334694,24.8374999 C20.7468501,25.1775562 20.4912439,25.4660346 20.1584598,25.4864585 C19.8256757,25.5068824 19.538054,25.2517433 19.5114286,24.9124999 L18.8979592,14.2875 C18.8879187,14.1216662 18.9429752,13.9585764 19.0509639,13.8342649 C19.1589527,13.7099534 19.3109849,13.6346525 19.4734694,13.625 L19.4746939,13.625 Z M25.6681632,13.625 C25.8306477,13.6346525 25.9826799,13.7099534 26.0906687,13.8342649 C26.1986574,13.9585764 26.2537139,14.1216662 26.2436734,14.2875 L25.6314285,24.9124999 C25.6225328,25.1385737 25.4946425,25.3420873 25.297055,25.4445928 C25.0994675,25.5470983 24.8630391,25.532588 24.6789051,25.4066552 C24.4947711,25.2807224 24.3916868,25.0630333 24.4093877,24.8374999 L25.0216326,14.2125 C25.0413484,13.8680638 25.330744,13.6050911 25.6681632,13.625 Z M22.5714285,13.625 C22.9095621,13.625 23.1836734,13.904822 23.1836734,14.25 L23.1836734,24.8749999 C23.1836734,25.2201779 22.9095621,25.4999999 22.5714285,25.4999999 C22.233295,25.4999999 21.9591837,25.2201779 21.9591837,24.8749999 L21.9591837,14.25 C21.9591837,13.904822 22.233295,13.625 22.5714285,13.625 Z" id="Shape" fill="#F37037" fill-rule="nonzero"></path>
            </g>
        </g>
    </g>
</svg>